# xmcd CD database file
#
# Track frame offsets:
#	180
#	4725
#	14662
#	26579
#	38670
#	48761
#	58699
#	70638
#	83062
#	93261
#	103293
#	113858
#	124452
#	135144
#	146252
#	156949
#	166443
#	176829
#	189875
#	202456
#	211626
#	223664
#
# Disc length: 3056 seconds
#
# Revision: 2
# Processed by: cddbd v1.4PL0 Copyright (c) Steve Scherf et al.
# Submitted via: CDex 1.40PlusFr
#
DISCID=310bee16
DTITLE=Nashville Music Company Und G ste - All the best Country and Western melodies 1
DYEAR=1900
DGENRE=Country
TTITLE0=Orange Blossom Special
TTITLE1=Deep In The Heart Of Texas
TTITLE2=Jackson
TTITLE3=Oh, Lonesome Me
TTITLE4=Bonanza
TTITLE5=Von den blauen Bergen kommen wir
TTITLE6=Blue Bayou
TTITLE7=On Top Of Old Smokey
TTITLE8=Some Broken Hearts Never Mend
TTITLE9=San Antonio Rose
TTITLE10=7000 Rinder
TTITLE11=El Rancho Grande
TTITLE12=Ghost Riders In The Sky
TTITLE13=Ring Of Fire
TTITLE14=El Paso
TTITLE15=Adios Amigo
TTITLE16=Tennessee Waltz
TTITLE17=Green, Green Grass Of Home
TTITLE18=Tom Dooley
TTITLE19=The Yellow Rose Of Texas
TTITLE20=Take Me Home Country Roads
TTITLE21=Orange Blossom Special
EXTD=ID3G: 2
EXTT0=
EXTT1=
EXTT2=
EXTT3=
EXTT4=
EXTT5=
EXTT6=
EXTT7=
EXTT8=
EXTT9=
EXTT10=
EXTT11=
EXTT12=
EXTT13=
EXTT14=
EXTT15=
EXTT16=
EXTT17=
EXTT18=
EXTT19=
EXTT20=
EXTT21=
PLAYORDER=
